PathFileType	4	(X/Y/Z)	Patient4_TMGait_0pt4_02_right_16.trc.trc
DataRate	CameraRate	NumFrames	NumMarkers	Units	OrigDataRate	OrigDataStartFrame	OrigNumFrames
73.684210526316	73.684210526316	5	33	mm	73.684210526316	1	       141
Frame#	Time	Sacral			L.Shoulder			Chest			R.Shoulder			Neck			R.ASIS			L.ASIS			R.Thigh.Superior			R.Thigh.Lateral			R.Thigh.Inferior			R.Patella			L.Thigh.Superior			L.Thigh.Lateral			L.Thigh.Inferior			L.Patella			L.Shank.Superior			L.Shank.Lateral			L.Shank.Inferior			R.Shank.Superior			R.Shank.Lateral			R.Shank.Inferior			R.Heel			R.Midfoot.Superior			R.Midfoot.Lateral			R.Toe			L.Heel			L.Midfoot.Lateral			L.Midfoot.Superior			L.Toe			L.Elbow			L.Wrist			R.Elbow			R.Wrist			
		X1	Y1	Z1	X2	Y2	Z2	X3	Y3	Z3	X4	Y4	Z4	X5	Y5	Z5	X6	Y6	Z6	X7	Y7	Z7	X8	Y8	Z8	X9	Y9	Z9	X10	Y10	Z10	X11	Y11	Z11	X12	Y12	Z12	X13	Y13	Z13	X14	Y14	Z14	X15	Y15	Z15	X16	Y16	Z16	X17	Y17	Z17	X18	Y18	Z18	X19	Y19	Z19	X20	Y20	Z20	X21	Y21	Z21	X22	Y22	Z22	X23	Y23	Z23	X24	Y24	Z24	X25	Y25	Z25	X26	Y26	Z26	X27	Y27	Z27	X28	Y28	Z28	X29	Y29	Z29	X30	Y30	Z30	X31	Y31	Z31	X32	Y32	Z32	X33	Y33	Z33	

1	20.660000000000	852.379951069426	1004.512637685837	427.368508609027	1040.810645001044	1432.360300329123	236.938231244332	1139.898057859878	1366.199222941303	401.100096109415	1052.512483961943	1441.148412357303	572.915724751108	1022.353088189920	1496.377860437050	391.927816547208	1083.770005188784	947.882653154828	542.435973705632	1066.860783467126	963.861374914152	269.110831412340	1170.049995009478	778.396336660122	509.617979979632	1135.996874512831	657.414978981214	586.818629277454	1223.625242086814	619.145583709591	505.646288067757	1246.531276813539	507.975760566737	528.978618720947	1125.084507911508	754.476789257610	296.534178893805	1041.372630296489	635.408872809237	239.708391822885	1128.344827826580	561.902840643268	304.452011025753	1130.212868182723	492.861365503167	315.585280237833	1105.148303222485	419.366009419939	307.343061182414	1017.755020682307	303.342560894961	257.462535135195	1069.650866999795	193.935354208008	330.605327118627	1171.859424039004	430.857836309165	543.531346640206	1056.187052176938	392.327020801948	615.888927651653	1037.800587533239	281.408903336152	571.394009949177	837.222149450910	225.834144024265	566.197843800623	1005.660331484133	154.913631856621	588.108835553447	898.944012186206	157.444688151132	629.928532287657	1063.910684855189	34.677333287928	598.811121735020	942.844291615401	38.308724269531	374.882681637155	1013.946193156507	34.858777854674	291.561490805762	1097.152695206094	97.031037715347	317.056908381056	1225.110664524521	47.758040543832	283.809835461918	1070.091006757398	1088.856673043414	99.750328914829	1218.760682448874	871.360043536928	105.879420846335	1008.978032997089	1093.446203181886	690.402867074116	1095.745871260262	845.901731458628	695.756641468743	
2	20.673571428571	851.484847383305	1005.329935687669	425.117283228391	1043.300607789774	1433.369680281582	236.672443153645	1140.447149998356	1366.287724222956	401.524058233737	1051.762487400912	1440.963873794072	572.726224657367	1023.371182542437	1496.890918431560	391.921154197582	1082.056793215131	948.829256100144	541.874568159865	1067.284385700261	964.093587317545	268.379047376053	1169.714826076041	780.754333582294	509.715282458425	1136.876860005685	660.033767061652	587.926891505399	1224.429184694627	622.052742980246	506.637748555569	1248.820801360799	512.423010819884	530.647594719260	1123.376123932903	753.950903224056	296.934790210270	1039.144026039072	635.408729041764	239.231958755240	1125.038640528072	561.294229692970	304.523106822462	1126.304320363457	492.311704943705	315.701460826126	1100.996816703793	418.985561259193	307.352168721876	1013.265894808841	303.283033273696	257.329332242983	1064.202293697500	193.688943630220	330.722416093787	1177.477168824283	433.169296373581	544.910079512074	1064.028177077105	388.900352352538	616.834257395314	1051.312517564777	277.654267233142	572.097719823238	854.251204653752	211.843955094303	565.833401811395	1025.559567386882	150.399012120623	589.010609249155	918.938081206693	147.426718556100	630.344242503910	1089.869823701737	34.059055615469	600.834759376001	937.054892288992	38.312327137641	374.892007119776	1008.169212302385	34.868983590429	291.567732959676	1091.430745361227	96.971344375427	317.111053528472	1219.402606832721	47.545755330736	283.830804616121	1075.962407957702	1091.568723090275	97.228088252942	1233.826387610972	881.616669079765	105.652734096853	998.702183677333	1094.463233831150	688.017345757524	1071.290780278292	843.848019408618	694.308325078241	
3	20.687142857143	850.603169295797	1006.141898766825	422.878732552971	1045.814335263942	1434.342337074358	236.436134964359	1141.023624252766	1366.346277403196	401.973386136591	1051.049571551336	1440.777913719846	572.554263491538	1024.417152219173	1497.380544317427	391.931768141865	1080.338956522686	949.733559166856	541.352558137452	1067.710323049440	964.312866856270	267.681766587604	1169.282187576999	782.986319165515	509.879548706371	1137.464253813965	662.490036720871	589.063512512820	1224.963555508999	624.744938083486	507.743131485351	1250.758279749623	516.717436728665	532.378336353780	1121.660701888332	753.421822079192	297.367806222050	1036.929634394671	635.408415280672	238.753763042783	1121.730408166116	560.689515023804	304.602764385103	1122.395861409838	491.766368872933	315.813157916782	1096.848320097674	418.603590641243	307.357682558446	1008.786514590175	303.218912046166	257.192228508744	1058.784038970836	193.443884838538	330.834011650382	1182.875872327609	435.357077403067	546.331291806415	1071.873689464179	385.249933995163	617.875814198549	1064.967846458998	273.757858345261	572.873170644815	871.728656988231	197.518598962627	565.628972008260	1045.800453073937	145.823480878736	589.949980579523	939.417585633288	137.223776323378	630.866708315872	1116.244415639970	33.594334712046	602.830295171755	931.294461935596	38.313904355115	374.900008783396	1002.420348208498	34.877888787325	291.572441591106	1085.733771240542	96.911373295518	317.166363473204	1213.719430337034	47.337624397691	283.851169533574	1081.722509152911	1094.227217166450	94.760071829905	1248.659406476077	891.893439307153	105.511088597394	988.496081981827	1095.579139295123	685.730171186908	1047.218114722922	842.078597198456	692.848004414566	
4	20.700714285714	849.762409686485	1006.938638748061	420.688236433720	1048.358926229531	1435.237178700528	236.261668405203	1141.651426197688	1366.348946064856	402.472641666231	1050.415668024884	1440.592462869685	572.421624643261	1025.511536086283	1497.823366846728	391.978101376059	1078.631693779049	950.550798169755	540.915923145392	1068.144585212427	964.503527679496	267.063669332289	1168.628125838728	784.921776721993	510.182869808148	1137.467089213012	664.617472158683	590.251907804669	1224.943839132719	626.999576227616	509.030539643841	1251.987781246195	520.693614786737	534.184572572483	1119.953942311399	752.888770624828	297.858325394950	1034.750769271886	635.406949881028	238.285010901867	1118.432966052569	560.091494760218	304.703799631715	1118.501569028718	491.228061774058	315.922475647348	1092.720664796611	418.220084349562	307.362926160832	1004.340990421341	303.147861880446	257.053406260303	1053.438383137327	193.201625629474	330.937148013712	1187.798018262400	437.329773453493	547.816684164265	1079.662789646645	381.268891377519	619.073264715111	1078.788924659226	269.725246231972	573.764448259437	889.981740110819	182.803595474692	565.684366300771	1066.539423125980	141.304322147778	590.941344763713	960.691878541707	126.886786114649	631.553177923790	1143.180270489523	33.586962194027	604.754307697720	925.601823421925	38.312924950459	374.906120936306	996.739072845443	34.884933251000	291.574648763046	1080.101682292839	96.851565438208	317.223359214132	1208.098553246027	47.135773181232	283.870844729584	1087.258368926303	1096.759637539144	92.427584638681	1262.972141336539	902.135956881149	105.543394779552	978.495554934343	1096.872583829560	683.630202641580	1024.020075930112	840.834013179528	691.376110082982	
5	20.714285714286	848.989333944537	1007.714453841671	418.574769398655	1050.945192334752	1436.019307170838	236.176914759224	1142.353575662286	1366.274344015753	403.044625192448	1049.897912162464	1440.409680303946	572.347191056826	1026.674973099902	1498.200712210652	392.075072138263	1076.948945548159	951.243050479430	540.605500169466	1068.593662713101	964.648791076852	266.564632051246	1167.627256915261	786.397577802970	510.690936712284	1136.612765031781	666.271483772926	591.507503822149	1224.101936742285	628.619874700652	510.547214957300	1252.191885835556	524.212667148547	536.055816858626	1118.267356961383	752.345734793500	298.423596024362	1032.618270093816	635.402090440718	237.839746910453	1115.150422556274	559.499306927089	304.839226240957	1114.624250524202	490.696049214892	316.035748562452	1088.619566861354	417.833378230077	307.374163264311	999.936961370360	303.068494892932	256.917288460914	1048.184015543526	192.962169486193	331.031152413800	1192.019646005238	439.030483930716	549.371225456116	1087.366452716043	376.896892795119	620.473449324227	1092.815917826950	265.614779184240	574.799248654408	909.351667400904	167.715489958795	566.083646504465	1087.944026842830	137.014383348822	591.985199686075	983.080057295685	116.530771280103	632.442979215560	1170.824220881103	34.388799921017	606.548145344668	919.990928069433	38.309086411997	374.909559076963	991.139103419644	34.889698069342	291.573878913269	1074.548322379116	96.791688806734	317.282604796488	1202.552512221784	46.940423624331	283.890104726641	1092.498716570011	1099.104382083184	90.302047616869	1276.555142830941	912.310194075376	105.829094872848	968.801306959573	1098.411656378515	681.779515749354	1002.065301025214	840.294943296820	689.891570046164	
